Title: "Spartacus: Blood and Sand"
Year: 2010
Runtime: mins
Votes: 0
Language: English
Country: USA
All Genres: Action, Drama, Fantasy


#######################################################################
Cast:
#######################################################################
• Andy Whitfield as Spartacus (13 episodes, 2010)
• Manu Bennett as Crixus (13 episodes, 2010)
• Peter Mensah as Doctore (12 episodes, 2010)
• Nick Tarabay as Ashur (12 episodes, 2010)
• Viva Bianca as Ilithyia (11 episodes, 2010)
• Lesley-Ann Brandt as Naevia (11 episodes, 2010)
• Jai Courtney as Varro (10 episodes, 2010)
• John Hannah as Batiatus (7 episodes, 2010)
• Lucy Lawless as Lucretia (7 episodes, 2010)
• Erin Cummings as Sura (7 episodes, 2010)
Description	
Ep 108 - Mark Of The Brotherhood

Starring: Andy Whitfield, Lucy Lawless, John Hannah

Directed By: Rowan Woods

Genre: Action, Drama

Episode #108

Rating:

5.0/5

Ep 108 'Mark Of Brotherhood' - Batiatus purchases a fresh batch of slaves during an auction to be trained as gladiators and ponders the idea of selling Crixus. USA - 2010 - TVMA

Format                          : AVI
Format/Info                      : Audio Video Interleave
File size                        : 348 MiB
Duration                        : 50mn 40s
Overall bit rate                : 961 Kbps
Writing application              : VirtualDubMod 1.5.4.1 (build 2178/release)
Writing library                  : VirtualDubMod build 2178/release

Video
ID                              : 0
Format                          : MPEG-4 Visual
Format profile                  : Advanced Simple@L5
Format settings, BVOP            : Yes
Format settings, QPel            : No
Format settings, GMC            : No warppoints
Format settings, Matrix          : Default (H.263)
Codec ID                        : XVID
Codec ID/Hint                    : XviD
Duration                        : 50mn 40s
Bit rate                        : 821 Kbps
Width                            : 544 pixels
Height                          : 304 pixels
Display aspect ratio            : 16:9
Frame rate                      : 30.000 fps
Resolution                      : 8 bits
Colorimetry                      : 4:2:0
Scan type                        : Progressive
Bits/(Pixel*Frame)              : 0.166
Stream size                      : 298 MiB (85%)
Writing library                  : XviD 1.2.1 (UTC 2008-12-04)

Audio
ID                              : 1
Format                          : MPEG Audio
Format version                  : Version 1
Format profile                  : Layer 3
Mode                            : Joint stereo
Format_Settings_ModeExtension    : MS Stereo
Codec ID                        : 55
Codec ID/Hint                    : MP3
Duration                        : 50mn 40s
Bit rate mode                    : Constant
Bit rate                        : 128 Kbps
Channel(s)                      : 2 channels
Sampling rate                    : 44.1 KHz
Stream size                      : 46.3 MiB (13%)
Alignment                        : Aligned on interleaves
Interleave, duration            : 33 ms (1.00 video frame)
Interleave, preload duration    : 522 ms 